<svg width="20" height="20" viewBox="0 0 20 20" fill="none" xmlns="http://www.w3.org/2000/svg">
<path d="M18.3402 12.3828C18.6191 12.0715 18.7891 11.6605 18.7891 11.2109C18.7891 10.2418 18.0004 9.45312 17.0312 9.45312H13.6195C13.9574 8.42773 14.1016 7.06719 14.1016 6.48398V5.89844C14.1016 4.60625 13.05 3.55469 11.7578 3.55469H11.1719C10.9031 3.55469 10.6688 3.7375 10.6035 3.99844L10.2844 5.27539C9.83711 7.06367 8.41719 9.03672 6.94766 9.39531C6.69023 8.74375 6.05469 8.28125 5.3125 8.28125H1.79688C1.47344 8.28125 1.21094 8.54375 1.21094 8.86719V19.4141C1.21094 19.7375 1.47344 20 1.79688 20H5.3125C6.01133 20 6.61602 19.5902 6.89922 18.998L8.9125 19.6691C9.5707 19.8887 10.2566 20 10.9508 20H15.8594C16.8285 20 17.6172 19.2113 17.6172 18.2422C17.6172 18.0137 17.5734 17.7949 17.4937 17.5945C18.2391 17.391 18.7891 16.7078 18.7891 15.8984C18.7891 15.4488 18.6191 15.0379 18.3402 14.7266C18.6191 14.4152 18.7891 14.0043 18.7891 13.5547C18.7891 13.1051 18.6191 12.6941 18.3402 12.3828ZM5.89844 18.2422C5.89844 18.5652 5.63555 18.8281 5.3125 18.8281H2.38281V9.45312H5.3125C5.63555 9.45312 5.89844 9.71601 5.89844 10.0391V18.2422ZM15.8594 12.9687H17.0312C17.3543 12.9687 17.6172 13.2316 17.6172 13.5547C17.6172 13.8777 17.3543 14.1406 17.0312 14.1406H15.8594C15.5359 14.1406 15.2734 14.4031 15.2734 14.7266C15.2734 15.05 15.5359 15.3125 15.8594 15.3125H17.0312C17.3543 15.3125 17.6172 15.5754 17.6172 15.8984C17.6172 16.2215 17.3543 16.4844 17.0312 16.4844H15.8594C15.5359 16.4844 15.2734 16.7469 15.2734 17.0703C15.2734 17.3937 15.5359 17.6562 15.8594 17.6562C16.1824 17.6562 16.4453 17.9191 16.4453 18.2422C16.4453 18.5652 16.1824 18.8281 15.8594 18.8281H10.9508C10.3828 18.8281 9.82148 18.7371 9.28281 18.5574L7.07031 17.8199V10.5695C7.98945 10.3949 8.88906 9.81289 9.70117 8.86016C10.4941 7.92969 11.1371 6.69609 11.4211 5.55977L11.6293 4.72656H11.7578C12.4039 4.72656 12.9297 5.25234 12.9297 5.89844V6.48398C12.9297 7.2707 12.6836 8.77969 12.3688 9.45312H11.1719C10.8484 9.45312 10.5859 9.71562 10.5859 10.0391C10.5859 10.3625 10.8484 10.625 11.1719 10.625H17.0312C17.3543 10.625 17.6172 10.8879 17.6172 11.2109C17.6172 11.534 17.3543 11.7969 17.0312 11.7969H15.8594C15.5359 11.7969 15.2734 12.0594 15.2734 12.3828C15.2734 12.7062 15.5359 12.9687 15.8594 12.9687Z" fill="white"/>
<path d="M4.14063 17.6562C4.46423 17.6562 4.72656 17.3939 4.72656 17.0703C4.72656 16.7467 4.46423 16.4844 4.14063 16.4844C3.81702 16.4844 3.55469 16.7467 3.55469 17.0703C3.55469 17.3939 3.81702 17.6562 4.14063 17.6562Z" fill="white"/>
<path d="M12.3438 0C12.0202 0 11.7578 0.262344 11.7578 0.585937V1.79687C11.7578 2.12047 12.0202 2.38281 12.3438 2.38281C12.6673 2.38281 12.9297 2.12047 12.9297 1.79687V0.585937C12.9297 0.262344 12.6673 0 12.3438 0Z" fill="white"/>
<path d="M9.85782 2.58387L9.02919 1.75524C8.8004 1.52641 8.42938 1.52641 8.20055 1.75524C7.97172 1.98407 7.97172 2.35504 8.20055 2.58387L9.02919 3.4125C9.25798 3.64129 9.62903 3.64133 9.85782 3.4125C10.0867 3.18368 10.0867 2.8127 9.85782 2.58387Z" fill="white"/>
<path d="M16.4869 1.75524C16.2581 1.52641 15.8871 1.52641 15.6583 1.75524L14.8296 2.58383C14.6008 2.81266 14.6008 3.18364 14.8296 3.41247C15.0584 3.6413 15.4294 3.64134 15.6583 3.41251L16.4869 2.58387C16.7157 2.35504 16.7157 1.98407 16.4869 1.75524Z" fill="white"/>
</svg>
