<svg width="30" height="30" viewBox="0 0 30 30" fill="none" xmlns="http://www.w3.org/2000/svg">
<g clip-path="url(#clip0)">
<path d="M15 6.85547C10.4768 6.85547 6.79688 10.5354 6.79688 15.0586C6.79688 19.5818 10.4768 23.2617 15 23.2617C19.5232 23.2617 23.2031 19.5818 23.2031 15.0586C23.2031 10.5354 19.5232 6.85547 15 6.85547ZM15 22.0898C11.123 22.0898 7.96875 18.9356 7.96875 15.0586C7.96875 11.1816 11.123 8.02734 15 8.02734C18.877 8.02734 22.0313 11.1816 22.0313 15.0586C22.0313 18.9356 18.877 22.0898 15 22.0898Z" fill="#F7BA33"/>
<path d="M29.4141 20.1437V0.585938C29.4141 0.335312 29.2548 0.11261 29.0176 0.0315857C28.7807 -0.0494385 28.5182 0.0292969 28.3649 0.22728C26.7334 2.33459 25.5787 4.78455 24.9857 7.37709C24.6554 6.94931 24.2965 6.53915 23.9079 6.15074C21.5286 3.77151 18.365 2.46094 15 2.46094C11.635 2.46094 8.4716 3.77129 6.09215 6.15074C6.01295 6.22993 5.93605 6.3105 5.85938 6.39153V0.585938C5.85938 0.262299 5.59708 0 5.27344 0C4.9498 0 4.6875 0.262299 4.6875 0.585938V7.61719H3.51562V0.585938C3.51562 0.262299 3.25333 0 2.92969 0C2.60605 0 2.34375 0.262299 2.34375 0.585938V7.61719H1.17188V0.585938C1.17188 0.262299 0.909576 0 0.585938 0C0.262299 0 0 0.262299 0 0.585938V8.20312C0 9.12758 0.441513 9.99664 1.17188 10.5462V20.1437C0.815964 23.4112 0.585938 27.1053 0.585938 27.6562C0.585938 28.9485 1.63742 30 2.92969 30C4.22195 30 5.27344 28.9485 5.27344 27.6562C5.27344 27.2438 5.14458 25.0694 4.93034 22.6311C5.28328 23.0988 5.67055 23.5451 6.09215 23.9667C8.4716 26.3459 11.635 27.6562 15 27.6562C18.365 27.6562 21.5286 26.3459 23.9079 23.9664C24.6183 23.2562 25.2328 22.4755 25.7462 21.6408C25.4784 24.4553 25.3125 27.1886 25.3125 27.6562C25.3125 28.9485 26.364 30 27.6562 30C28.9485 30 30 28.9485 30 27.6562C30 27.1053 29.77 23.4112 29.4141 20.1437ZM27.0703 16.1133H28.2422V17.2852H27.0703V16.1133ZM25.903 8.80508C26.2548 6.55724 27.0547 4.39613 28.2422 2.463V14.9414H26.7272L25.8987 14.1131L25.903 8.80508ZM2.34375 16.1133H3.51562V17.2852H2.34375V16.1133ZM4.58611 8.78906C4.44809 9.17747 4.17503 9.51302 3.80814 9.72542C3.62709 9.83002 3.51562 10.0234 3.51562 10.2324V14.9414H2.34375V10.2326C2.34375 10.0234 2.23228 9.83002 2.05124 9.72542C1.68434 9.51302 1.41151 9.17747 1.27327 8.78906H4.58611ZM2.92969 28.8281C2.28355 28.8281 1.75781 28.3024 1.75781 27.6562C1.75781 27.2097 2.34375 20.1968 2.34375 20.1755V18.457H3.51562V20.1755C3.51562 20.1968 4.10156 27.2097 4.10156 27.6562C4.10156 28.3026 3.57582 28.8281 2.92969 28.8281ZM15 26.4844C10.4592 26.4844 6.52885 23.8218 4.6875 19.9761V10.5462C5.41557 9.99847 5.85617 9.13307 5.85915 8.21205C7.94518 5.43365 11.266 3.63281 15 3.63281C19.1084 3.63281 22.717 5.81268 24.7309 9.07631L24.7266 14.355C24.7266 14.5107 24.7881 14.6599 24.8982 14.77L25.8984 15.7702V18.4904C24.4379 23.1189 20.105 26.4844 15 26.4844ZM27.6562 28.8281C27.0101 28.8281 26.4844 28.3024 26.4844 27.6562C26.4844 27.2097 27.0703 20.1968 27.0703 20.1755V18.457H28.2422V20.1755C28.2422 20.1968 28.8281 27.2097 28.8281 27.6562C28.8281 28.3026 28.3024 28.8281 27.6562 28.8281Z" fill="#F7BA33"/>
<path d="M15.075 19.7457C14.9185 19.748 14.772 19.8111 14.6631 19.9237C14.5541 20.0363 14.4955 20.1837 14.4983 20.3403C14.5008 20.4955 14.5628 20.6404 14.6729 20.7493C14.7832 20.8576 14.929 20.9175 15.0837 20.9175H15.0931C15.4158 20.912 15.6749 20.6454 15.6697 20.3222C15.6674 20.1675 15.6051 20.0222 15.495 19.9137C15.3826 19.8029 15.2309 19.7434 15.075 19.7457Z" fill="#F7BA33"/>
<path d="M19.6875 15.0586C19.6882 16.8505 18.6896 18.4605 17.0819 19.2597C16.9419 19.3295 16.8368 19.4497 16.7871 19.5978C16.7372 19.7461 16.748 19.9049 16.8176 20.045C16.9171 20.246 17.1188 20.3707 17.3426 20.3707C17.4335 20.3707 17.5214 20.3501 17.6029 20.3091C18.5656 19.8317 19.3788 19.0981 19.9546 18.1876C20.5465 17.2524 20.8594 16.1707 20.8594 15.0586C20.8594 14.7359 20.5964 14.4727 20.2735 14.4727C19.9508 14.4727 19.6875 14.7359 19.6875 15.0586Z" fill="#F7BA33"/>
</g>
<defs>
<clipPath id="clip0">
<rect width="30" height="30" fill="white"/>
</clipPath>
</defs>
</svg>
