<svg width="30" height="30" viewBox="0 0 30 30" fill="none" xmlns="http://www.w3.org/2000/svg">
<path d="M26.7991 5.73848H27.726C28.0493 5.73848 28.3116 5.47627 28.3116 5.15293C28.3116 4.82958 28.0493 4.56737 27.726 4.56737H25.5009C25.1776 4.56737 24.9153 4.82958 24.9153 5.15293V7.37803C24.9153 7.70137 25.1776 7.96358 25.5009 7.96358C25.8242 7.96358 26.0865 7.70137 26.0865 7.37803V6.73375C27.8631 9.11232 28.8289 11.9983 28.8289 15C28.8289 22.6253 22.6253 28.8289 15 28.8289C7.37469 28.8289 1.17111 22.6253 1.17111 15C1.17111 7.37469 7.37469 1.17111 15 1.17111C15.5639 1.17111 16.1315 1.20536 16.6871 1.27288C17.0077 1.31164 17.3001 1.08333 17.3391 0.762273C17.3781 0.441273 17.1495 0.149316 16.8284 0.110318C16.2261 0.0371241 15.611 0 15 0C10.9934 0 7.22649 1.56027 4.39341 4.39341C1.56027 7.22649 0 10.9934 0 15C0 19.0066 1.56027 22.7735 4.39341 25.6066C7.22649 28.4397 10.9934 30 15 30C19.0066 30 22.7735 28.4397 25.6066 25.6066C28.4397 22.7735 30 19.0066 30 15C30 11.619 28.8705 8.37312 26.7991 5.73848Z" fill="#F7BA33"/>
<path d="M6.35159 8.84265C6.07831 8.66968 5.71662 8.75107 5.54359 9.02418C4.20683 11.1354 3.61507 13.6745 3.87734 16.1737C4.14347 18.71 5.28501 21.1017 7.09167 22.9085C9.27198 25.0888 12.136 26.179 15 26.179C17.8641 26.179 20.728 25.0888 22.9084 22.9085C27.2691 18.5478 27.2691 11.4524 22.9084 7.09179C21.1045 5.28793 18.7167 4.14681 16.1846 3.87863C13.69 3.61425 11.1537 4.20138 9.04332 5.53158C8.76969 5.70403 8.68777 6.06561 8.86016 6.33918C9.0326 6.61281 9.39418 6.69473 9.66775 6.52234C13.6459 4.015 18.75 4.5896 22.0803 7.91988C25.9843 11.8239 25.9843 18.1763 22.0803 22.0803C18.1763 25.9844 11.8238 25.9844 7.91982 22.0803C4.63557 18.7961 4.05236 13.5687 6.53311 9.65072C6.70603 9.37744 6.62481 9.01568 6.35159 8.84265Z" fill="#F7BA33"/>
<path d="M22.6123 15.5949H23.3344C23.6577 15.5949 23.9199 15.3327 23.9199 15.0094C23.9199 14.686 23.6577 14.4238 23.3344 14.4238H22.6123C22.2889 14.4238 22.0267 14.686 22.0267 15.0094C22.0267 15.3327 22.2889 15.5949 22.6123 15.5949Z" fill="#F7BA33"/>
<path d="M6.0802 14.9905C6.0802 15.3138 6.34241 15.576 6.66575 15.576H7.38786C7.7112 15.576 7.97341 15.3138 7.97341 14.9905C7.97341 14.6671 7.7112 14.4049 7.38786 14.4049H6.66575C6.34241 14.4049 6.0802 14.6671 6.0802 14.9905Z" fill="#F7BA33"/>
<path d="M15.5951 7.38786V6.66575C15.5951 6.34241 15.3328 6.0802 15.0095 6.0802C14.6862 6.0802 14.424 6.34241 14.424 6.66575V7.38786C14.424 7.7112 14.6862 7.97341 15.0095 7.97341C15.3328 7.97341 15.5951 7.7112 15.5951 7.38786Z" fill="#F7BA33"/>
<path d="M14.4049 22.6122V23.3343C14.4049 23.6576 14.6671 23.9198 14.9905 23.9198C15.3138 23.9198 15.576 23.6576 15.576 23.3343V22.6122C15.576 22.2888 15.3138 22.0266 14.9905 22.0266C14.6671 22.0266 14.4049 22.2888 14.4049 22.6122Z" fill="#F7BA33"/>
<path d="M12.0651 11.2369C11.8364 11.0083 11.4657 11.0083 11.2369 11.2369C11.0083 11.4656 11.0083 11.8363 11.2369 12.0651L13.2214 14.0496C13.0694 14.333 12.9829 14.6566 12.9829 15.0001C12.9829 16.1124 13.8878 17.0173 15.0001 17.0173C16.1124 17.0173 17.0173 16.1124 17.0173 15.0001C17.0173 14.6566 16.9308 14.333 16.7788 14.0496L20.783 10.0454C21.0116 9.81672 21.0116 9.44594 20.783 9.21723C20.5543 8.98863 20.1836 8.98863 19.9548 9.21723L15.9506 13.2214C15.6672 13.0693 15.3436 12.9829 15.0001 12.9829C14.6566 12.9829 14.333 13.0694 14.0496 13.2214L12.0651 11.2369ZM15.8462 15.0001C15.8462 15.4667 15.4667 15.8462 15.0001 15.8462C14.5335 15.8462 14.154 15.4667 14.154 15.0001C14.154 14.5335 14.5335 14.154 15.0001 14.154C15.4667 14.154 15.8462 14.5335 15.8462 15.0001Z" fill="#F7BA33"/>
<path d="M7.91946 7.91946C8.02896 7.81055 8.09156 7.65948 8.09156 7.50547C8.09156 7.35147 8.02896 7.20099 7.91946 7.09149C7.81055 6.98263 7.66 6.91992 7.50548 6.91992C7.35148 6.91992 7.2004 6.98258 7.09149 7.09149C6.98263 7.2004 6.91992 7.35147 6.91992 7.50547C6.91992 7.66006 6.98258 7.81055 7.09149 7.91946C7.2004 8.02832 7.35148 8.09103 7.50548 8.09103C7.66 8.09103 7.81055 8.02832 7.91946 7.91946Z" fill="#F7BA33"/>
<path d="M19.0561 1.74948C19.2108 1.74948 19.3618 1.68735 19.4707 1.57791C19.5796 1.469 19.6423 1.31845 19.6423 1.16392C19.6423 1.00992 19.5797 0.858849 19.4707 0.749936C19.3618 0.641082 19.2108 0.578369 19.0561 0.578369C18.9021 0.578369 18.7511 0.641023 18.6422 0.749936C18.5333 0.858849 18.4706 1.00992 18.4706 1.16392C18.4706 1.31851 18.5332 1.469 18.6422 1.57791C18.7511 1.68735 18.9021 1.74948 19.0561 1.74948Z" fill="#F7BA33"/>
</svg>
