<svg width="21" height="20" viewBox="0 0 21 20" fill="none" xmlns="http://www.w3.org/2000/svg">
<g clip-path="url(#clip0)">
<path d="M10.2358 4.57031C7.2204 4.57031 4.76709 7.02362 4.76709 10.0391C4.76709 13.0545 7.2204 15.5078 10.2358 15.5078C13.2513 15.5078 15.7046 13.0545 15.7046 10.0391C15.7046 7.02362 13.2513 4.57031 10.2358 4.57031ZM10.2358 14.7266C7.65115 14.7266 5.54834 12.6237 5.54834 10.0391C5.54834 7.45438 7.65115 5.35156 10.2358 5.35156C12.8205 5.35156 14.9233 7.45438 14.9233 10.0391C14.9233 12.6237 12.8205 14.7266 10.2358 14.7266Z" fill="white"/>
<path d="M19.8452 13.4291V0.390625C19.8452 0.223541 19.739 0.0750732 19.5809 0.0210571C19.423 -0.032959 19.248 0.0195312 19.1458 0.15152C18.0581 1.5564 17.2883 3.1897 16.8929 4.91806C16.6728 4.63287 16.4335 4.35944 16.1744 4.10049C14.5883 2.51434 12.4792 1.64062 10.2358 1.64062C7.99249 1.64062 5.88358 2.51419 4.29727 4.10049C4.24448 4.15329 4.19321 4.207 4.14209 4.26102V0.390625C4.14209 0.174866 3.96722 0 3.75146 0C3.53571 0 3.36084 0.174866 3.36084 0.390625V5.07812H2.57959V0.390625C2.57959 0.174866 2.40472 0 2.18896 0C1.97321 0 1.79834 0.174866 1.79834 0.390625V5.07812H1.01709V0.390625C1.01709 0.174866 0.842224 0 0.626465 0C0.410706 0 0.23584 0.174866 0.23584 0.390625V5.46875C0.23584 6.08505 0.530182 6.66443 1.01709 7.03079V13.4291C0.779816 15.6075 0.626465 18.0702 0.626465 18.4375C0.626465 19.299 1.32745 20 2.18896 20C3.05048 20 3.75146 19.299 3.75146 18.4375C3.75146 18.1625 3.66556 16.713 3.52274 15.0874C3.75803 15.3992 4.0162 15.6967 4.29727 15.9778C5.88358 17.5639 7.99249 18.4375 10.2358 18.4375C12.4792 18.4375 14.5883 17.5639 16.1744 15.9776C16.648 15.5042 17.0577 14.9837 17.4 14.4272C17.2215 16.3036 17.1108 18.1258 17.1108 18.4375C17.1108 19.299 17.8118 20 18.6733 20C19.5349 20 20.2358 19.299 20.2358 18.4375C20.2358 18.0702 20.0825 15.6075 19.8452 13.4291ZM18.2827 10.7422H19.064V11.5234H18.2827V10.7422ZM17.5045 5.87006C17.739 4.37149 18.2723 2.93076 19.064 1.642V9.96094H18.054L17.5016 9.40872L17.5045 5.87006ZM1.79834 10.7422H2.57959V11.5234H1.79834V10.7422ZM3.29324 5.85938C3.20123 6.11832 3.0192 6.34201 2.7746 6.48361C2.6539 6.55334 2.57959 6.68228 2.57959 6.82159V9.96094H1.79834V6.82175C1.79834 6.68228 1.72403 6.55334 1.60333 6.48361C1.35873 6.34201 1.17685 6.11832 1.08469 5.85938H3.29324ZM2.18896 19.2188C1.75821 19.2188 1.40771 18.8683 1.40771 18.4375C1.40771 18.1398 1.79834 13.4645 1.79834 13.4503V12.3047H2.57959V13.4503C2.57959 13.4645 2.97021 18.1398 2.97021 18.4375C2.97021 18.8684 2.61972 19.2188 2.18896 19.2188ZM10.2358 17.6562C7.20865 17.6562 4.58841 15.8812 3.36084 13.3174V7.03079C3.84622 6.66565 4.13995 6.08871 4.14194 5.4747C5.53262 3.62244 7.74652 2.42188 10.2358 2.42188C12.9748 2.42188 15.3805 3.87512 16.7231 6.05087L16.7202 9.57001C16.7202 9.67377 16.7613 9.77325 16.8347 9.84665L17.5015 10.5135V12.327C16.5278 15.4126 13.6392 17.6562 10.2358 17.6562ZM18.6733 19.2188C18.2426 19.2188 17.8921 18.8683 17.8921 18.4375C17.8921 18.1398 18.2827 13.4645 18.2827 13.4503V12.3047H19.064V13.4503C19.064 13.4645 19.4546 18.1398 19.4546 18.4375C19.4546 18.8684 19.1041 19.2188 18.6733 19.2188Z" fill="white"/>
<path d="M10.2859 13.1637C10.1815 13.1653 10.0839 13.2074 10.0112 13.2825C9.9386 13.3575 9.89954 13.4558 9.90137 13.5602C9.90305 13.6636 9.9444 13.7602 10.0178 13.8328C10.0913 13.905 10.1885 13.945 10.2917 13.945H10.2979C10.5131 13.9413 10.6858 13.7636 10.6823 13.5481C10.6808 13.445 10.6393 13.3481 10.5659 13.2757C10.491 13.2019 10.3898 13.1622 10.2859 13.1637Z" fill="white"/>
<path d="M13.3608 10.0391C13.3613 11.2337 12.6955 12.307 11.6238 12.8398C11.5304 12.8864 11.4603 12.9665 11.4272 13.0652C11.394 13.1641 11.4011 13.27 11.4475 13.3633C11.5139 13.4973 11.6483 13.5805 11.7976 13.5805C11.8581 13.5805 11.9167 13.5667 11.9711 13.5394C12.6128 13.2211 13.155 12.7321 13.5389 12.1251C13.9335 11.5016 14.1421 10.7805 14.1421 10.0391C14.1421 9.82391 13.9668 9.64844 13.7515 9.64844C13.5363 9.64844 13.3608 9.82391 13.3608 10.0391Z" fill="white"/>
</g>
<defs>
<clipPath id="clip0">
<rect width="20" height="20" fill="white" transform="translate(0.23584)"/>
</clipPath>
</defs>
</svg>
