<svg width="20" height="20" viewBox="0 0 20 20" fill="none" xmlns="http://www.w3.org/2000/svg">
<path d="M18.0536 3.82565H18.6716C18.8871 3.82565 19.0619 3.65085 19.0619 3.43528C19.0619 3.21972 18.8871 3.04492 18.6716 3.04492H17.1882C16.9726 3.04492 16.7978 3.21972 16.7978 3.43528V4.91869C16.7978 5.13425 16.9726 5.30906 17.1882 5.30906C17.4037 5.30906 17.5785 5.13425 17.5785 4.91869V4.48916C18.763 6.07488 19.4068 7.99889 19.4068 10C19.4068 15.0835 15.2711 19.2193 10.1876 19.2193C5.10402 19.2193 0.968299 15.0835 0.968299 10C0.968299 4.91646 5.10402 0.780738 10.1876 0.780738C10.5635 0.780738 10.9419 0.803574 11.3123 0.848584C11.526 0.874426 11.7209 0.722221 11.7469 0.508182C11.773 0.294182 11.6206 0.099544 11.4065 0.0735455C11.005 0.0247494 10.5949 0 10.1876 0C7.51646 0 5.00522 1.04018 3.1165 2.92894C1.22774 4.81766 0.187561 7.3289 0.187561 10C0.187561 12.6711 1.22774 15.1823 3.1165 17.0711C5.00522 18.9598 7.51646 20 10.1876 20C12.8587 20 15.3699 18.9598 17.2586 17.0711C19.1474 15.1823 20.1876 12.6711 20.1876 10C20.1876 7.74597 19.4345 5.58208 18.0536 3.82565Z" fill="white"/>
<path d="M4.42198 5.8951C4.23979 5.77979 3.99866 5.83405 3.8833 6.01612C2.99213 7.42363 2.59763 9.11635 2.77247 10.7825C2.94989 12.4733 3.71092 14.0678 4.91536 15.2723C6.3689 16.7258 8.27823 17.4526 10.1876 17.4526C12.097 17.4526 14.0063 16.7259 15.4598 15.2723C18.367 12.3652 18.367 7.63494 15.4598 4.72786C14.2572 3.52529 12.6654 2.76454 10.9773 2.58575C9.31427 2.4095 7.62339 2.80092 6.21646 3.68772C6.03404 3.80269 5.97943 4.04374 6.09435 4.22612C6.20932 4.40854 6.45037 4.46315 6.63275 4.34823C9.28484 2.67667 12.6876 3.05974 14.9078 5.27992C17.5105 7.88263 17.5105 12.1175 14.9078 14.7202C12.3051 17.323 8.07013 17.323 5.46746 14.7202C3.27796 12.5307 2.88915 9.04577 4.54299 6.43381C4.65827 6.25163 4.60412 6.01046 4.42198 5.8951Z" fill="white"/>
<path d="M15.2624 10.3967H15.7438C15.9593 10.3967 16.1342 10.2219 16.1342 10.0063C16.1342 9.79077 15.9593 9.61597 15.7438 9.61597H15.2624C15.0468 9.61597 14.872 9.79077 14.872 10.0063C14.872 10.2219 15.0468 10.3967 15.2624 10.3967Z" fill="white"/>
<path d="M4.24097 9.99364C4.24097 10.2092 4.41577 10.384 4.63134 10.384H5.11274C5.3283 10.384 5.50311 10.2092 5.50311 9.99364C5.50311 9.77808 5.3283 9.60327 5.11274 9.60327H4.63134C4.41577 9.60327 4.24097 9.77804 4.24097 9.99364Z" fill="white"/>
<path d="M10.5843 4.92524V4.44384C10.5843 4.22827 10.4095 4.05347 10.1939 4.05347C9.97833 4.05347 9.80353 4.22827 9.80353 4.44384V4.92524C9.80353 5.1408 9.97833 5.31561 10.1939 5.31561C10.4095 5.31561 10.5843 5.1408 10.5843 4.92524Z" fill="white"/>
<path d="M9.79083 15.0747V15.5561C9.79083 15.7717 9.96564 15.9465 10.1812 15.9465C10.3968 15.9465 10.5716 15.7717 10.5716 15.5561V15.0747C10.5716 14.8591 10.3968 14.6843 10.1812 14.6843C9.96564 14.6843 9.79083 14.8591 9.79083 15.0747Z" fill="white"/>
<path d="M8.23088 7.49128C8.0784 7.33888 7.8313 7.33888 7.67878 7.49128C7.52634 7.64372 7.52634 7.8909 7.67878 8.04338L9.00178 9.36637C8.9004 9.55531 8.84275 9.77107 8.84275 10.0001C8.84275 10.7416 9.44602 11.3449 10.1876 11.3449C10.9291 11.3449 11.5324 10.7416 11.5324 10.0001C11.5324 9.77107 11.4747 9.55531 11.3734 9.36637L14.0428 6.69692C14.1952 6.54448 14.1952 6.2973 14.0428 6.14482C13.8903 5.99242 13.6432 5.99242 13.4907 6.14482L10.8213 8.81428C10.6323 8.7129 10.4166 8.65524 10.1876 8.65524C9.95858 8.65524 9.74282 8.71294 9.55388 8.81428L8.23088 7.49128ZM10.7516 10.0001C10.7516 10.3111 10.4986 10.5641 10.1876 10.5641C9.87652 10.5641 9.62348 10.3111 9.62348 10.0001C9.62348 9.68901 9.87652 9.43598 10.1876 9.43598C10.4986 9.43598 10.7516 9.68901 10.7516 10.0001Z" fill="white"/>
<path d="M5.4672 5.27964C5.5402 5.20703 5.58193 5.10632 5.58193 5.00365C5.58193 4.90098 5.5402 4.80066 5.4672 4.72766C5.39459 4.65509 5.29423 4.61328 5.19121 4.61328C5.08854 4.61328 4.98783 4.65505 4.91522 4.72766C4.84265 4.80027 4.80084 4.90098 4.80084 5.00365C4.80084 5.10671 4.84261 5.20703 4.91522 5.27964C4.98783 5.35221 5.08854 5.39402 5.19121 5.39402C5.29423 5.39402 5.39459 5.35221 5.4672 5.27964Z" fill="white"/>
<path d="M12.8916 1.16624C12.9947 1.16624 13.0955 1.12482 13.168 1.05186C13.2406 0.979249 13.2824 0.878885 13.2824 0.775867C13.2824 0.6732 13.2407 0.572485 13.168 0.499876C13.0955 0.427307 12.9947 0.385498 12.8916 0.385498C12.789 0.385498 12.6883 0.427267 12.6157 0.499876C12.5431 0.572485 12.5013 0.6732 12.5013 0.775867C12.5013 0.878924 12.5431 0.979249 12.6157 1.05186C12.6883 1.12482 12.789 1.16624 12.8916 1.16624Z" fill="white"/>
</svg>
